# xmcd CD database file
#
# Track frame offsets:
#	150
#	18089
#	31988
#	47793
#	64185
#	81081
#	98306
#	116499
#	143161
#	180215
#	197697
#	217991
#	237625
#	254502
#	274981
#
# Disc length: 3885 seconds
#
# Revision: 0
# Processed by: cddbd v1.5.1PL2 Copyright (c) Steve Scherf et al.
# Submitted via: CDex 1.51
#
DISCID=c80f2b0f
DTITLE=Peter Green - Kolors
DYEAR=2005
DGENRE=Blues
TTITLE0=black woman
TTITLE1=bandit
TTITLE2=what am i doing here?
TTITLE3=bad bad feeling
TTITLE4=same old blues
TTITLE5=liquor and you
TTITLE6=gotta do it with me
TTITLE7=big boy now
TTITLE8=funky jam
TTITLE9=apostle
TTITLE10=whatcha gonna do?
TTITLE11=rubbing my eyes
TTITLE12=long way from home
TTITLE13=six string guitar
TTITLE14=you won't see me anymore
EXTD=YEAR: 2005
EXTT0=
EXTT1=
EXTT2=
EXTT3=
EXTT4=
EXTT5=
EXTT6=
EXTT7=
EXTT8=
EXTT9=
EXTT10=
EXTT11=
EXTT12=
EXTT13=
EXTT14=
PLAYORDER=
